# xmcd CD database file
#
# Track frame offsets:
#	150
#	33632
#	60942
#	116132
#	164087
#	215825
#	255165
#	285795
#
# Disc length: 4388 seconds
#
# Revision: 0
# Processed by: cddbd v1.5.1PL0 Copyright (c) Steve Scherf et al.
# Submitted via: CDex 1.51
#
DISCID=6e112208
DTITLE=Cannonball - Dizzy's Business
DYEAR=1962
DGENRE=Jazz
TTITLE0=Autumn Leaves
TTITLE1=Dizzy s Business
TTITLE2=Primitivo
TTITLE3=Jive Samba
TTITLE4=This Here
TTITLE5=Never Say Yes
TTITLE6=Peter And The Goats
TTITLE7=New Delhi
EXTD=YEAR: 1962
EXTT0=
EXTT1=
EXTT2=
EXTT3=
EXTT4=
EXTT5=
EXTT6=
EXTT7=
PLAYORDER=
